<svg width="42" height="30" viewBox="0 0 42 30" fill="none" xmlns="http://www.w3.org/2000/svg">
<path d="M40.9559 23.5209L38.6852 7.56258C38.1019 3.45842 34.5813 0.416748 30.4357 0.416748H11.5618C7.41617 0.416748 3.89554 3.45842 3.31224 7.56258L1.04153 23.5209C0.583227 26.7293 3.06225 29.5834 6.29124 29.5834C7.70782 29.5834 9.04108 29.0209 10.041 28.0209L14.7491 23.3334H27.2484L31.9356 28.0209C32.9356 29.0209 34.2896 29.5834 35.6854 29.5834C38.9352 29.5834 41.4142 26.7293 40.9559 23.5209ZM18.9155 12.9167H14.7491V17.0834H12.6659V12.9167H8.49945V10.8334H12.6659V6.66675H14.7491V10.8334H18.9155V12.9167ZM27.2484 10.8334C26.1026 10.8334 25.1652 9.89592 25.1652 8.75008C25.1652 7.60425 26.1026 6.66675 27.2484 6.66675C28.3942 6.66675 29.3316 7.60425 29.3316 8.75008C29.3316 9.89592 28.3942 10.8334 27.2484 10.8334ZM31.4148 17.0834C30.269 17.0834 29.3316 16.1459 29.3316 15.0001C29.3316 13.8543 30.269 12.9167 31.4148 12.9167C32.5606 12.9167 33.498 13.8543 33.498 15.0001C33.498 16.1459 32.5606 17.0834 31.4148 17.0834Z" fill="#2A7AE4"/>
</svg>
